<?xml version="1.0" encoding="iso-8859-1"?>
<!-- Uploaded to: SVG Repo, www.svgrepo.com, Generator: SVG Repo Mixer Tools -->
<!DOCTYPE svg PUBLIC "-//W3C//DTD SVG 1.1//EN" "http://www.w3.org/Graphics/SVG/1.1/DTD/svg11.dtd">
<svg fill="#000000" version="1.1" id="Capa_1" xmlns="http://www.w3.org/2000/svg" xmlns:xlink="http://www.w3.org/1999/xlink" 
	 width="800px" height="800px" viewBox="0 0 512.954 512.954"
	 xml:space="preserve">
<g>
	<path d="M396.648,115.314h-49.705V90.721C346.943,40.699,306.247,0,256.218,0c-50.022,0-90.716,40.704-90.716,90.721v24.593
		h-49.196c-5.486,0-9.941,4.45-9.941,9.941v377.758c0,5.483,4.455,9.94,9.941,9.94h280.342c5.488,0,9.94-4.457,9.94-9.94V125.255
		C406.589,119.764,402.137,115.314,396.648,115.314z M185.379,90.716c0-39.059,31.771-70.839,70.834-70.839
		c39.066,0,70.848,31.781,70.848,70.839v24.593H185.379V90.716z M177.025,211.47c-11.217,0-20.311-9.094-20.311-20.312
		c0-11.217,9.094-20.311,20.311-20.311s20.311,9.094,20.311,20.311C197.336,202.376,188.242,211.47,177.025,211.47z M337.722,211.47
		c-11.22,0-20.312-9.094-20.312-20.312c0-11.217,9.092-20.311,20.312-20.311s20.311,9.094,20.311,20.311
		C358.032,202.376,348.941,211.47,337.722,211.47z"/>
	<rect x="169.656" y="139.387" width="14.337" height="49.382"/>
	<rect x="328.961" y="139.387" width="14.338" height="49.382"/>
</g>
</svg>