<?xml version="1.0" encoding="iso-8859-1"?>
<!-- Uploaded to: SVG Repo, www.svgrepo.com, Generator: SVG Repo Mixer Tools -->
<!DOCTYPE svg PUBLIC "-//W3C//DTD SVG 1.1//EN" "http://www.w3.org/Graphics/SVG/1.1/DTD/svg11.dtd">
<svg fill="#000000" version="1.1" id="Capa_1" xmlns="http://www.w3.org/2000/svg" xmlns:xlink="http://www.w3.org/1999/xlink" 
	 width="800px" height="800px" viewBox="0 0 396.527 396.527"
	 xml:space="preserve">
<g>
	<g>
		<path d="M349.861,99.309c-0.424-8.885-7.75-15.869-16.645-15.869H281.59V38.887C281.59,17.446,264.144,0,242.703,0H153.82
			c-21.44,0-38.887,17.445-38.887,38.887V83.44H63.306c-8.894,0-16.221,6.984-16.644,15.869l-13.38,279.757
			c-0.218,4.555,1.438,8.995,4.583,12.295c3.144,3.301,7.506,5.166,12.063,5.166h296.67c4.558,0,8.918-1.865,12.063-5.166
			c3.146-3.3,4.802-7.74,4.584-12.295L349.861,99.309z M148.267,38.887c0-3.062,2.491-5.556,5.554-5.556h88.883
			c3.062,0,5.554,2.493,5.554,5.556V83.44h-99.99L148.267,38.887L148.267,38.887z M274.744,202.99l-90.371,89.759
			c-0.92,0.913-2.055,1.487-3.243,1.718c-1.87,0.36-3.875-0.127-5.398-1.479l-41.7-37.101c-2.605-2.315-2.838-6.305-0.523-8.908
			l16.776-18.857c1.114-1.249,2.671-2.007,4.347-2.104c1.674-0.098,3.314,0.474,4.563,1.586l19.543,17.386l69.327-68.855
			c2.472-2.455,6.467-2.442,8.924,0.029l17.786,17.909c1.18,1.188,1.839,2.795,1.832,4.468
			C276.604,200.207,275.934,201.812,274.744,202.99z"/>
	</g>
</g>
</svg>