<?xml version="1.0" standalone="no"?>
<!DOCTYPE svg PUBLIC "-//W3C//DTD SVG 20010904//EN"
 "http://www.w3.org/TR/2001/REC-SVG-20010904/DTD/svg10.dtd">
<svg version="1.0" xmlns="http://www.w3.org/2000/svg"
 width="512.000000pt" height="512.000000pt" viewBox="0 0 512.000000 512.000000"
 preserveAspectRatio="xMidYMid meet">

<g transform="translate(0.000000,512.000000) scale(0.100000,-0.100000)"
fill="#000000" stroke="none">
<path d="M3209 4481 c-24 -16 -188 -173 -364 -350 l-320 -321 -146 146 c-153
153 -175 167 -250 156 -30 -4 -163 -133 -1072 -1041 -829 -828 -1040 -1043
-1049 -1073 -20 -68 10 -141 72 -173 34 -18 102 -20 133 -4 12 6 455 444 984
973 l963 961 957 -956 c527 -526 969 -964 983 -973 15 -10 45 -16 76 -16 42 0
59 5 84 26 56 47 77 123 49 177 -6 12 -242 254 -525 537 l-514 515 0 355 c0
334 -1 357 -20 387 -10 18 -34 40 -52 49 -69 36 -161 13 -198 -49 -18 -29 -20
-51 -20 -234 0 -112 -3 -203 -8 -203 -4 0 -58 51 -120 113 l-112 112 278 278
277 277 790 -791 c435 -435 802 -797 817 -805 83 -44 197 10 214 101 14 78 18
74 -436 530 l-429 430 -3 297 c-3 283 -4 298 -24 325 -71 96 -196 97 -254 1
-17 -29 -20 -51 -20 -170 0 -76 -3 -138 -8 -138 -4 0 -131 124 -282 276 -151
152 -289 282 -307 290 -50 22 -94 17 -144 -15z"/>
<path d="M2115 3510 c-33 -11 -1644 -1613 -1673 -1665 -15 -27 -17 -78 -20
-443 -2 -245 1 -439 7 -478 19 -125 89 -222 199 -276 l67 -33 475 0 475 0 62
29 c76 35 144 104 181 184 l27 57 5 365 c5 352 6 366 27 406 44 83 139 144
222 144 70 0 169 -70 207 -146 17 -36 19 -70 24 -399 l5 -360 31 -66 c43 -89
93 -142 172 -181 l67 -33 475 0 475 0 61 28 c77 36 145 104 181 182 l28 60 3
435 c3 306 0 451 -8 490 l-12 55 -801 803 c-441 442 -815 811 -832 822 -38 23
-91 32 -130 20z"/>
</g>
</svg>
