<svg width="50" height="36" viewBox="0 0 50 36" fill="none" xmlns="http://www.w3.org/2000/svg">
<rect width="50" height="33" fill="#CE4E74"/>
<g filter="url(#filter0_d_28_58)">
<path d="M14.1427 21.3337L18.4902 18.8237L19.1902 20.0361L16.0985 21.8211L16.8835 23.1807L19.6201 21.6007L20.3201 22.8132L17.5835 24.3932L18.3785 25.7702L21.5914 23.9152L22.2914 25.1276L17.8227 27.7076L14.1427 21.3337ZM22.3063 20.073L22.7915 20.6935L22.7392 20.6429C22.7353 20.3295 22.813 20.0306 22.9721 19.7463C23.1279 19.4562 23.3819 19.2095 23.7341 19.0061C24.0921 18.7995 24.4511 18.7346 24.8111 18.8116C25.1736 18.8794 25.4544 19.0791 25.6535 19.4106L27.2885 22.2425L26.0761 22.9425L24.7011 20.5609C24.5986 20.3969 24.4758 20.2907 24.3325 20.2426C24.1917 20.1853 24.0231 20.2134 23.8268 20.3267C23.6421 20.4334 23.5154 20.5873 23.4469 20.7886C23.3783 20.9898 23.3665 21.216 23.4114 21.4672C23.4564 21.7184 23.5572 21.9796 23.7138 22.251L24.6038 23.7925L23.3914 24.4925L21.2064 20.708L22.3063 20.073ZM30.1413 20.6994L25.6423 18.1469L27.0799 17.3169L29.8803 19.1873L29.1205 19.5913L28.7427 16.3569L30.0937 15.5769L30.176 20.6794L30.1413 20.6994ZM30.8054 15.166L32.0179 14.466L34.2029 18.2505L32.9904 18.9505L30.8054 15.166ZM30.0044 13.8387C29.9011 13.6597 29.8854 13.4725 29.9573 13.277C30.035 13.0782 30.1546 12.9321 30.3163 12.8388C30.4779 12.7454 30.6585 12.7182 30.8579 12.757C31.0632 12.7925 31.2175 12.8997 31.3208 13.0787C31.4241 13.2576 31.4398 13.4449 31.3679 13.6403C31.2985 13.8267 31.1829 13.9665 31.0213 14.0599C30.8596 14.1532 30.675 14.1867 30.4673 14.1603C30.262 14.1249 30.1078 14.0176 30.0044 13.8387ZM37.105 16.7136C36.7528 16.9169 36.3924 17.0326 36.0237 17.0607C35.6574 17.0797 35.3056 16.9903 34.9682 16.7925C34.6307 16.5947 34.3304 16.2678 34.067 15.8117C33.8204 15.3845 33.6936 14.9649 33.6868 14.5532C33.68 14.1414 33.7698 13.7701 33.956 13.4394C34.1389 13.1028 34.3891 12.8429 34.7067 12.6596C35.0819 12.4429 35.4015 12.3431 35.6654 12.3601C35.9317 12.368 36.1717 12.4104 36.3853 12.4871L36.4184 12.6644L36.211 12.0451L37.3368 11.3951L39.5218 15.1796L38.3094 15.8796L37.8344 15.0569L38.0796 15.2617C38.0681 15.2684 38.0534 15.323 38.0357 15.4256C38.0146 15.5225 37.973 15.6504 37.9109 15.8095C37.8512 15.9594 37.756 16.1145 37.6252 16.2746C37.5035 16.4372 37.3301 16.5836 37.105 16.7136ZM36.8814 15.5263C37.0257 15.4429 37.144 15.3477 37.2361 15.2407C37.3249 15.1278 37.3893 15.006 37.4292 14.8751C37.4658 14.7385 37.4792 14.5884 37.4694 14.4247L36.9344 13.4981C36.8148 13.3977 36.6839 13.3309 36.5415 13.2976C36.3958 13.2586 36.2461 13.2526 36.0924 13.2798C35.9354 13.3012 35.779 13.3568 35.6231 13.4468C35.4499 13.5468 35.3149 13.6864 35.2181 13.8654C35.1238 14.0353 35.0783 14.2233 35.0817 14.4291C35.0851 14.635 35.1451 14.839 35.2618 15.0411C35.3785 15.2431 35.5296 15.3983 35.7154 15.5067C35.9011 15.615 36.0956 15.672 36.2991 15.6777C36.5083 15.6801 36.7024 15.6296 36.8814 15.5263ZM39.6773 10.0438L40.3899 11.018L40.2739 10.8772C40.2536 10.5887 40.2937 10.3115 40.3942 10.0456C40.4914 9.77392 40.6074 9.54146 40.7422 9.34819C40.8827 9.15158 41.002 9.02495 41.1002 8.96828L41.7395 10.2157C41.4366 10.3444 41.2208 10.5306 41.0921 10.7743C40.9633 11.018 40.9041 11.2754 40.9144 11.5466C40.9247 11.8178 40.9932 12.063 41.1199 12.2824L41.9749 13.7633L40.7711 14.4583L38.5861 10.6738L39.6773 10.0438Z" fill="black"/>
</g>
<g filter="url(#filter1_bdi_28_58)">
<rect width="25.9863" height="9.632" transform="matrix(0.903755 -0.428051 0.575533 0.817779 9.4563 11.1235)" fill="#CE4E74"/>
<rect x="0.739644" y="0.194864" width="24.9863" height="8.632" transform="matrix(0.903755 -0.428051 0.575533 0.817779 9.41534 11.4756)" stroke="black"/>
</g>
<line x1="14.6567" y1="17.637" x2="32.6567" y2="0.636984" stroke="black"/>
<line x1="10.9233" y1="11.5425" x2="36.9233" y2="7.50641" stroke="black"/>
<line x1="3.77664" y1="17.5527" x2="11.7881" y2="13.5525" stroke="black"/>
<line x1="6.77291" y1="17.5545" x2="12.658" y2="14.5544" stroke="black"/>
<line x1="8.77417" y1="17.9357" x2="13.4796" y2="15.5537" stroke="black"/>
<defs>
<filter id="filter0_d_28_58" x="10.1428" y="6.56934" width="37.3123" height="29.2422" filterUnits="userSpaceOnUse" color-interpolation-filters="sRGB">
<feFlood flood-opacity="0" result="BackgroundImageFix"/>
<feColorMatrix in="SourceAlpha" type="matrix" values="0 0 0 0 0 0 0 0 0 0 0 0 0 0 0 0 0 0 127 0" result="hardAlpha"/>
<feOffset dy="4"/>
<feGaussianBlur stdDeviation="2"/>
<feComposite in2="hardAlpha" operator="out"/>
<feColorMatrix type="matrix" values="0 0 0 0 0 0 0 0 0 0 0 0 0 0 0 0 0 0 0.25 0"/>
<feBlend mode="normal" in2="BackgroundImageFix" result="effect1_dropShadow_28_58"/>
<feBlend mode="normal" in="SourceGraphic" in2="effect1_dropShadow_28_58" result="shape"/>
</filter>
<filter id="filter1_bdi_28_58" x="5.4563" y="-4" width="37.0288" height="31.0005" filterUnits="userSpaceOnUse" color-interpolation-filters="sRGB">
<feFlood flood-opacity="0" result="BackgroundImageFix"/>
<feGaussianBlur in="BackgroundImageFix" stdDeviation="2"/>
<feComposite in2="SourceAlpha" operator="in" result="effect1_backgroundBlur_28_58"/>
<feColorMatrix in="SourceAlpha" type="matrix" values="0 0 0 0 0 0 0 0 0 0 0 0 0 0 0 0 0 0 127 0" result="hardAlpha"/>
<feOffset dy="4"/>
<feGaussianBlur stdDeviation="2"/>
<feComposite in2="hardAlpha" operator="out"/>
<feColorMatrix type="matrix" values="0 0 0 0 0 0 0 0 0 0 0 0 0 0 0 0 0 0 0.25 0"/>
<feBlend mode="normal" in2="effect1_backgroundBlur_28_58" result="effect2_dropShadow_28_58"/>
<feBlend mode="normal" in="SourceGraphic" in2="effect2_dropShadow_28_58" result="shape"/>
<feColorMatrix in="SourceAlpha" type="matrix" values="0 0 0 0 0 0 0 0 0 0 0 0 0 0 0 0 0 0 127 0" result="hardAlpha"/>
<feOffset dy="4"/>
<feGaussianBlur stdDeviation="2"/>
<feComposite in2="hardAlpha" operator="arithmetic" k2="-1" k3="1"/>
<feColorMatrix type="matrix" values="0 0 0 0 0 0 0 0 0 0 0 0 0 0 0 0 0 0 0.25 0"/>
<feBlend mode="normal" in2="shape" result="effect3_innerShadow_28_58"/>
</filter>
</defs>
</svg>
