<?xml version="1.0" standalone="no"?>
<!DOCTYPE svg PUBLIC "-//W3C//DTD SVG 20010904//EN"
 "http://www.w3.org/TR/2001/REC-SVG-20010904/DTD/svg10.dtd">
<svg version="1.0" xmlns="http://www.w3.org/2000/svg"
 width="16.000000pt" height="16.000000pt" viewBox="0 0 16.000000 16.000000"
 preserveAspectRatio="xMidYMid meet">

<g transform="translate(0.000000,16.000000) scale(0.100000,-0.100000)"
fill="#000000" stroke="none">
<path d="M0 125 c0 -28 26 -34 60 -13 16 10 24 10 40 0 34 -21 60 -15 60 13 0
25 -1 25 -80 25 -79 0 -80 0 -80 -25z"/>
<path d="M65 90 c-3 -5 -17 -10 -31 -10 -21 0 -24 -5 -24 -35 l0 -35 70 0 70
0 0 35 c0 30 -3 35 -24 35 -14 0 -28 5 -31 10 -3 6 -10 10 -15 10 -5 0 -12 -4
-15 -10z m-5 -45 c0 -8 -7 -15 -15 -15 -8 0 -15 7 -15 15 0 8 7 15 15 15 8 0
15 -7 15 -15z m70 0 c0 -8 -7 -15 -15 -15 -8 0 -15 7 -15 15 0 8 7 15 15 15 8
0 15 -7 15 -15z"/>
</g>
</svg>
