<svg width="83" height="42" viewBox="0 0 83 42" fill="none" xmlns="http://www.w3.org/2000/svg">
<rect width="77" height="36" transform="translate(3)" fill="#E6BEE3"/>
<path d="M49.6213 5.57622C49.5985 5.07732 49.2061 4.68517 48.7296 4.68517H45.9639V2.18351C45.9639 0.979596 45.0293 0 43.8807 0H39.1191C37.9705 0 37.0359 0.97954 37.0359 2.18351V4.68517H34.2702C33.7937 4.68517 33.4012 5.07732 33.3785 5.57622L32.6617 21.2846C32.6501 21.5404 32.7388 21.7897 32.9072 21.975C33.0757 22.1603 33.3094 22.2651 33.5535 22.2651H49.4465C49.6906 22.2651 49.9242 22.1603 50.0927 21.975C50.2612 21.7897 50.3499 21.5404 50.3383 21.2846L49.6213 5.57622ZM38.8216 2.18351C38.8216 2.01158 38.9551 1.87154 39.1192 1.87154H43.8807C44.0448 1.87154 44.1783 2.01152 44.1783 2.18351V4.68517H38.8217L38.8216 2.18351ZM45.5971 11.3979L40.7559 16.4379C40.7066 16.4892 40.6458 16.5214 40.5821 16.5344C40.482 16.5546 40.3745 16.5272 40.293 16.4513L38.059 14.3681C37.9195 14.2381 37.907 14.0141 38.031 13.8679L38.9297 12.8091C38.9894 12.739 39.0728 12.6964 39.1626 12.691C39.2523 12.6854 39.3401 12.7176 39.407 12.78L40.454 13.7562L44.1679 9.89001C44.3003 9.75216 44.5144 9.75289 44.646 9.89164L45.5988 10.8972C45.662 10.9639 45.6973 11.0542 45.6969 11.1481C45.6968 11.2417 45.6609 11.3318 45.5971 11.3979Z" fill="#E6BEE3"/>
<path d="M49.6213 5.57622C49.5985 5.07732 49.2061 4.68517 48.7296 4.68517H45.9639V2.18351C45.9639 0.979596 45.0293 0 43.8807 0H39.1191C37.9705 0 37.0359 0.97954 37.0359 2.18351V4.68517H34.2702C33.7937 4.68517 33.4012 5.07732 33.3785 5.57622L32.6617 21.2846C32.6501 21.5404 32.7388 21.7897 32.9072 21.975C33.0757 22.1603 33.3094 22.2651 33.5535 22.2651H49.4465C49.6906 22.2651 49.9242 22.1603 50.0927 21.975C50.2612 21.7897 50.3499 21.5404 50.3383 21.2846L49.6213 5.57622ZM38.8216 2.18351C38.8216 2.01158 38.9551 1.87154 39.1192 1.87154H43.8807C44.0448 1.87154 44.1783 2.01152 44.1783 2.18351V4.68517H38.8217L38.8216 2.18351ZM45.5971 11.3979L40.7559 16.4379C40.7066 16.4892 40.6458 16.5214 40.5821 16.5344C40.482 16.5546 40.3745 16.5272 40.293 16.4513L38.059 14.3681C37.9195 14.2381 37.907 14.0141 38.031 13.8679L38.9297 12.8091C38.9894 12.739 39.0728 12.6964 39.1626 12.691C39.2523 12.6854 39.3401 12.7176 39.407 12.78L40.454 13.7562L44.1679 9.89001C44.3003 9.75216 44.5144 9.75289 44.646 9.89164L45.5988 10.8972C45.662 10.9639 45.6973 11.0542 45.6969 11.1481C45.6968 11.2417 45.6609 11.3318 45.5971 11.3979Z" fill="black"/>
<path d="M49.6213 5.57622C49.5985 5.07732 49.2061 4.68517 48.7296 4.68517H45.9639V2.18351C45.9639 0.979596 45.0293 0 43.8807 0H39.1191C37.9705 0 37.0359 0.97954 37.0359 2.18351V4.68517H34.2702C33.7937 4.68517 33.4012 5.07732 33.3785 5.57622L32.6617 21.2846C32.6501 21.5404 32.7388 21.7897 32.9072 21.975C33.0757 22.1603 33.3094 22.2651 33.5535 22.2651H49.4465C49.6906 22.2651 49.9242 22.1603 50.0927 21.975C50.2612 21.7897 50.3499 21.5404 50.3383 21.2846L49.6213 5.57622ZM38.8216 2.18351C38.8216 2.01158 38.9551 1.87154 39.1192 1.87154H43.8807C44.0448 1.87154 44.1783 2.01152 44.1783 2.18351V4.68517H38.8217L38.8216 2.18351ZM45.5971 11.3979L40.7559 16.4379C40.7066 16.4892 40.6458 16.5214 40.5821 16.5344C40.482 16.5546 40.3745 16.5272 40.293 16.4513L38.059 14.3681C37.9195 14.2381 37.907 14.0141 38.031 13.8679L38.9297 12.8091C38.9894 12.739 39.0728 12.6964 39.1626 12.691C39.2523 12.6854 39.3401 12.7176 39.407 12.78L40.454 13.7562L44.1679 9.89001C44.3003 9.75216 44.5144 9.75289 44.646 9.89164L45.5988 10.8972C45.662 10.9639 45.6973 11.0542 45.6969 11.1481C45.6968 11.2417 45.6609 11.3318 45.5971 11.3979Z" fill="black" fill-opacity="0.2"/>
<g filter="url(#filter0_d_11_42)">
<path d="M4.121 33.2651V24.2263H4.1328L8.959 31.0703L8.2274 30.9051L13.0418 24.2263H13.0654V33.2651H11.3544V28.0849L11.4606 28.9699L8.5224 33.1471H8.4988L5.478 28.9699L5.773 28.1557V33.2651H4.121ZM15.0389 28.1085H16.6909V33.2651H15.0389V28.1085ZM15.0035 26.2795C15.0035 26.0356 15.0979 25.835 15.2867 25.6777C15.4833 25.5203 15.6918 25.4417 15.9121 25.4417C16.1323 25.4417 16.3329 25.5203 16.5139 25.6777C16.7027 25.835 16.7971 26.0356 16.7971 26.2795C16.7971 26.5233 16.7027 26.7239 16.5139 26.8813C16.3329 27.0307 16.1323 27.1055 15.9121 27.1055C15.6918 27.1055 15.4833 27.0307 15.2867 26.8813C15.0979 26.7239 15.0035 26.5233 15.0035 26.2795ZM19.8908 28.1085L20.0206 29.0289L19.997 28.9463C20.1779 28.6237 20.4336 28.3641 20.764 28.1675C21.0944 27.9629 21.4995 27.8607 21.9794 27.8607C22.4671 27.8607 22.8722 28.0062 23.1948 28.2973C23.5252 28.5805 23.6943 28.9502 23.7022 29.4065V33.2651H22.0502V30.0201C22.0423 29.7919 21.9794 29.611 21.8614 29.4773C21.7512 29.3357 21.5624 29.2649 21.295 29.2649C21.0432 29.2649 20.823 29.3475 20.6342 29.5127C20.4454 29.6779 20.2998 29.9021 20.1976 30.1853C20.0953 30.4685 20.0442 30.7949 20.0442 31.1647V33.2651H18.3922V28.1085H19.8908ZM25.3984 33.2651V23.9549H27.015V29.1469L27.0032 28.9463C27.1842 28.6237 27.4398 28.3641 27.7702 28.1675C28.1006 27.9629 28.5058 27.8607 28.9856 27.8607C29.4734 27.8607 29.8785 28.0062 30.201 28.2973C30.5314 28.5805 30.7006 28.9502 30.7084 29.4065V33.2651H29.0564V30.0201C29.0486 29.7919 28.9856 29.611 28.8676 29.4773C28.7575 29.3357 28.5687 29.2649 28.3012 29.2649C28.0495 29.2649 27.8292 29.3475 27.6404 29.5127C27.4516 29.6779 27.3061 29.9021 27.2038 30.1853C27.1016 30.4685 27.0504 30.7949 27.0504 31.1647V33.2651H25.3984ZM34.5759 33.4067C34.096 33.4067 33.6594 33.3123 33.2661 33.1235C32.8806 32.9268 32.5738 32.6279 32.3457 32.2267C32.1175 31.8255 32.0035 31.3141 32.0035 30.6927C32.0035 30.1105 32.1215 29.6071 32.3575 29.1823C32.5935 28.7575 32.9042 28.431 33.2897 28.2029C33.6751 27.9669 34.0842 27.8489 34.5169 27.8489C35.0282 27.8489 35.4137 27.9354 35.6733 28.1085C35.9407 28.2737 36.161 28.4585 36.3341 28.6631L36.2633 28.8637L36.4167 28.1085H37.9507V33.2651H36.2987V32.1441L36.4285 32.4981C36.4127 32.4981 36.3655 32.5453 36.2869 32.6397C36.2082 32.7262 36.0902 32.8324 35.9329 32.9583C35.7834 33.0763 35.5946 33.1785 35.3665 33.2651C35.1462 33.3595 34.8827 33.4067 34.5759 33.4067ZM35.0479 32.0615C35.2445 32.0615 35.4215 32.0339 35.5789 31.9789C35.7362 31.9159 35.8739 31.8294 35.9919 31.7193C36.1099 31.6013 36.2121 31.4557 36.2987 31.2827V30.0201C36.2357 29.847 36.1413 29.7015 36.0155 29.5835C35.8896 29.4576 35.7401 29.3632 35.5671 29.3003C35.394 29.2295 35.2013 29.1941 34.9889 29.1941C34.7529 29.1941 34.5326 29.257 34.3281 29.3829C34.1314 29.5009 33.9741 29.6661 33.8561 29.8785C33.7381 30.0909 33.6791 30.3347 33.6791 30.6101C33.6791 30.8854 33.742 31.1332 33.8679 31.3535C33.9937 31.5737 34.1589 31.7468 34.3635 31.8727C34.5759 31.9985 34.804 32.0615 35.0479 32.0615ZM48.399 26.6807C48.0686 26.4997 47.7304 26.3503 47.3842 26.2323C47.046 26.1143 46.7274 26.0553 46.4284 26.0553C46.0587 26.0553 45.7676 26.13 45.5552 26.2795C45.3428 26.4289 45.2366 26.6531 45.2366 26.9521C45.2366 27.1566 45.3153 27.3415 45.4726 27.5067C45.6378 27.664 45.8463 27.8056 46.098 27.9315C46.3576 28.0573 46.6251 28.1714 46.9004 28.2737C47.1522 28.3681 47.4 28.4821 47.6438 28.6159C47.8956 28.7417 48.1198 28.903 48.3164 29.0997C48.5131 29.2885 48.6704 29.5284 48.7884 29.8195C48.9064 30.1027 48.9654 30.4527 48.9654 30.8697C48.9654 31.3102 48.8514 31.7193 48.6232 32.0969C48.3951 32.4745 48.0608 32.7813 47.6202 33.0173C47.1797 33.2454 46.6369 33.3595 45.9918 33.3595C45.6614 33.3595 45.3232 33.328 44.977 33.2651C44.6388 33.1943 44.3044 33.092 43.974 32.9583C43.6436 32.8167 43.325 32.6397 43.0182 32.4273L43.7734 31.0939C43.978 31.2433 44.1982 31.3771 44.4342 31.4951C44.6781 31.6052 44.922 31.6917 45.1658 31.7547C45.4097 31.8176 45.6339 31.8491 45.8384 31.8491C46.043 31.8491 46.2475 31.8215 46.452 31.7665C46.6644 31.7035 46.8375 31.6013 46.9712 31.4597C47.1128 31.3181 47.1836 31.1214 47.1836 30.8697C47.1836 30.6966 47.1246 30.5393 47.0066 30.3977C46.8965 30.2561 46.7431 30.1263 46.5464 30.0083C46.3576 29.8903 46.1492 29.788 45.921 29.7015C45.6536 29.5992 45.3782 29.4812 45.095 29.3475C44.8118 29.2137 44.5444 29.0525 44.2926 28.8637C44.0488 28.667 43.8482 28.4271 43.6908 28.1439C43.5414 27.8528 43.4666 27.4988 43.4666 27.0819C43.4666 26.5784 43.5768 26.1418 43.797 25.7721C44.0252 25.4023 44.3438 25.1113 44.7528 24.8989C45.1619 24.6786 45.6339 24.5567 46.1688 24.5331C46.869 24.5331 47.4354 24.6157 47.868 24.7809C48.3086 24.9461 48.7019 25.1427 49.048 25.3709L48.399 26.6807ZM52.5409 33.4067C52.0611 33.4067 51.6245 33.3123 51.2311 33.1235C50.8457 32.9268 50.5389 32.6279 50.3107 32.2267C50.0826 31.8255 49.9685 31.3141 49.9685 30.6927C49.9685 30.1105 50.0865 29.6071 50.3225 29.1823C50.5585 28.7575 50.8693 28.431 51.2547 28.2029C51.6402 27.9669 52.0493 27.8489 52.4819 27.8489C52.9933 27.8489 53.3787 27.9354 53.6383 28.1085C53.9058 28.2737 54.1261 28.4585 54.2991 28.6631L54.2283 28.8637L54.3817 28.1085H55.9157V33.2651H54.2637V32.1441L54.3935 32.4981C54.3778 32.4981 54.3306 32.5453 54.2519 32.6397C54.1733 32.7262 54.0553 32.8324 53.8979 32.9583C53.7485 33.0763 53.5597 33.1785 53.3315 33.2651C53.1113 33.3595 52.8477 33.4067 52.5409 33.4067ZM53.0129 32.0615C53.2096 32.0615 53.3866 32.0339 53.5439 31.9789C53.7013 31.9159 53.8389 31.8294 53.9569 31.7193C54.0749 31.6013 54.1772 31.4557 54.2637 31.2827V30.0201C54.2008 29.847 54.1064 29.7015 53.9805 29.5835C53.8547 29.4576 53.7052 29.3632 53.5321 29.3003C53.3591 29.2295 53.1663 29.1941 52.9539 29.1941C52.7179 29.1941 52.4977 29.257 52.2931 29.3829C52.0965 29.5009 51.9391 29.6661 51.8211 29.8785C51.7031 30.0909 51.6441 30.3347 51.6441 30.6101C51.6441 30.8854 51.7071 31.1332 51.8329 31.3535C51.9588 31.5737 52.124 31.7468 52.3285 31.8727C52.5409 31.9985 52.7691 32.0615 53.0129 32.0615ZM61.9958 32.8049C61.7676 32.9858 61.4805 33.1313 61.1344 33.2415C60.7961 33.3516 60.4618 33.4067 60.1314 33.4067C59.5414 33.4067 59.0261 33.3005 58.5856 33.0881C58.1529 32.8678 57.8146 32.5571 57.5708 32.1559C57.3348 31.7468 57.2168 31.2551 57.2168 30.6809C57.2168 30.1066 57.3466 29.6189 57.6062 29.2177C57.8658 28.8086 58.204 28.4979 58.621 28.2855C59.0458 28.0731 59.4902 27.9669 59.9544 27.9669C60.4185 27.9669 60.8197 28.0298 61.158 28.1557C61.5041 28.2815 61.7991 28.4467 62.043 28.6513L61.2406 29.7133C61.1304 29.6267 60.977 29.5402 60.7804 29.4537C60.5916 29.3593 60.3674 29.3121 60.1078 29.3121C59.8796 29.3121 59.6712 29.3711 59.4824 29.4891C59.2936 29.6071 59.1441 29.7683 59.034 29.9729C58.9238 30.1774 58.8688 30.4134 58.8688 30.6809C58.8688 30.9326 58.9278 31.1647 59.0458 31.3771C59.1638 31.5895 59.325 31.7586 59.5296 31.8845C59.742 32.0025 59.9898 32.0615 60.273 32.0615C60.4539 32.0615 60.6191 32.0379 60.7686 31.9907C60.9259 31.9356 61.0596 31.8609 61.1698 31.7665L61.9958 32.8049ZM62.8632 30.6219C62.8632 30.0948 62.9852 29.6228 63.229 29.2059C63.4808 28.7889 63.8308 28.4625 64.2792 28.2265C64.7276 27.9826 65.2429 27.8607 65.825 27.8607C66.415 27.8607 66.9264 27.9826 67.359 28.2265C67.7917 28.4625 68.1221 28.7889 68.3502 29.2059C68.5862 29.6228 68.7042 30.0948 68.7042 30.6219C68.7042 31.1489 68.5862 31.6249 68.3502 32.0497C68.1221 32.4666 67.7917 32.797 67.359 33.0409C66.9264 33.2847 66.4072 33.4067 65.8014 33.4067C65.235 33.4067 64.7276 33.2965 64.2792 33.0763C63.8387 32.856 63.4926 32.5374 63.2408 32.1205C62.9891 31.7035 62.8632 31.204 62.8632 30.6219ZM64.527 30.6337C64.527 30.9011 64.5821 31.145 64.6922 31.3653C64.8024 31.5777 64.9518 31.7468 65.1406 31.8727C65.3294 31.9985 65.5418 32.0615 65.7778 32.0615C66.0374 32.0615 66.2616 31.9985 66.4504 31.8727C66.6392 31.7468 66.7848 31.5777 66.887 31.3653C66.9893 31.145 67.0404 30.9011 67.0404 30.6337C67.0404 30.3583 66.9893 30.1145 66.887 29.9021C66.7848 29.6897 66.6392 29.5205 66.4504 29.3947C66.2616 29.2688 66.0374 29.2059 65.7778 29.2059C65.5418 29.2059 65.3294 29.2688 65.1406 29.3947C64.9518 29.5205 64.8024 29.6897 64.6922 29.9021C64.5821 30.1145 64.527 30.3583 64.527 30.6337ZM70.0057 23.9549H71.6577V33.2651H70.0057V23.9549ZM75.5302 33.4067C75.0503 33.4067 74.6137 33.3123 74.2204 33.1235C73.8349 32.9268 73.5281 32.6279 73.3 32.2267C73.0718 31.8255 72.9578 31.3141 72.9578 30.6927C72.9578 30.1105 73.0758 29.6071 73.3118 29.1823C73.5478 28.7575 73.8585 28.431 74.244 28.2029C74.6294 27.9669 75.0385 27.8489 75.4712 27.8489C75.9825 27.8489 76.368 27.9354 76.6276 28.1085C76.895 28.2737 77.1153 28.4585 77.2884 28.6631L77.2176 28.8637L77.371 28.1085H78.905V33.2651H77.253V32.1441L77.3828 32.4981C77.367 32.4981 77.3198 32.5453 77.2412 32.6397C77.1625 32.7262 77.0445 32.8324 76.8872 32.9583C76.7377 33.0763 76.5489 33.1785 76.3208 33.2651C76.1005 33.3595 75.837 33.4067 75.5302 33.4067ZM76.0022 32.0615C76.1988 32.0615 76.3758 32.0339 76.5332 31.9789C76.6905 31.9159 76.8282 31.8294 76.9462 31.7193C77.0642 31.6013 77.1664 31.4557 77.253 31.2827V30.0201C77.19 29.847 77.0956 29.7015 76.9698 29.5835C76.8439 29.4576 76.6944 29.3632 76.5214 29.3003C76.3483 29.2295 76.1556 29.1941 75.9432 29.1941C75.7072 29.1941 75.4869 29.257 75.2824 29.3829C75.0857 29.5009 74.9284 29.6661 74.8104 29.8785C74.6924 30.0909 74.6334 30.3347 74.6334 30.6101C74.6334 30.8854 74.6963 31.1332 74.8222 31.3535C74.948 31.5737 75.1132 31.7468 75.3178 31.8727C75.5302 31.9985 75.7583 32.0615 76.0022 32.0615Z" fill="#E6BEE3"/>
<path d="M4.121 33.2651V24.2263H4.1328L8.959 31.0703L8.2274 30.9051L13.0418 24.2263H13.0654V33.2651H11.3544V28.0849L11.4606 28.9699L8.5224 33.1471H8.4988L5.478 28.9699L5.773 28.1557V33.2651H4.121ZM15.0389 28.1085H16.6909V33.2651H15.0389V28.1085ZM15.0035 26.2795C15.0035 26.0356 15.0979 25.835 15.2867 25.6777C15.4833 25.5203 15.6918 25.4417 15.9121 25.4417C16.1323 25.4417 16.3329 25.5203 16.5139 25.6777C16.7027 25.835 16.7971 26.0356 16.7971 26.2795C16.7971 26.5233 16.7027 26.7239 16.5139 26.8813C16.3329 27.0307 16.1323 27.1055 15.9121 27.1055C15.6918 27.1055 15.4833 27.0307 15.2867 26.8813C15.0979 26.7239 15.0035 26.5233 15.0035 26.2795ZM19.8908 28.1085L20.0206 29.0289L19.997 28.9463C20.1779 28.6237 20.4336 28.3641 20.764 28.1675C21.0944 27.9629 21.4995 27.8607 21.9794 27.8607C22.4671 27.8607 22.8722 28.0062 23.1948 28.2973C23.5252 28.5805 23.6943 28.9502 23.7022 29.4065V33.2651H22.0502V30.0201C22.0423 29.7919 21.9794 29.611 21.8614 29.4773C21.7512 29.3357 21.5624 29.2649 21.295 29.2649C21.0432 29.2649 20.823 29.3475 20.6342 29.5127C20.4454 29.6779 20.2998 29.9021 20.1976 30.1853C20.0953 30.4685 20.0442 30.7949 20.0442 31.1647V33.2651H18.3922V28.1085H19.8908ZM25.3984 33.2651V23.9549H27.015V29.1469L27.0032 28.9463C27.1842 28.6237 27.4398 28.3641 27.7702 28.1675C28.1006 27.9629 28.5058 27.8607 28.9856 27.8607C29.4734 27.8607 29.8785 28.0062 30.201 28.2973C30.5314 28.5805 30.7006 28.9502 30.7084 29.4065V33.2651H29.0564V30.0201C29.0486 29.7919 28.9856 29.611 28.8676 29.4773C28.7575 29.3357 28.5687 29.2649 28.3012 29.2649C28.0495 29.2649 27.8292 29.3475 27.6404 29.5127C27.4516 29.6779 27.3061 29.9021 27.2038 30.1853C27.1016 30.4685 27.0504 30.7949 27.0504 31.1647V33.2651H25.3984ZM34.5759 33.4067C34.096 33.4067 33.6594 33.3123 33.2661 33.1235C32.8806 32.9268 32.5738 32.6279 32.3457 32.2267C32.1175 31.8255 32.0035 31.3141 32.0035 30.6927C32.0035 30.1105 32.1215 29.6071 32.3575 29.1823C32.5935 28.7575 32.9042 28.431 33.2897 28.2029C33.6751 27.9669 34.0842 27.8489 34.5169 27.8489C35.0282 27.8489 35.4137 27.9354 35.6733 28.1085C35.9407 28.2737 36.161 28.4585 36.3341 28.6631L36.2633 28.8637L36.4167 28.1085H37.9507V33.2651H36.2987V32.1441L36.4285 32.4981C36.4127 32.4981 36.3655 32.5453 36.2869 32.6397C36.2082 32.7262 36.0902 32.8324 35.9329 32.9583C35.7834 33.0763 35.5946 33.1785 35.3665 33.2651C35.1462 33.3595 34.8827 33.4067 34.5759 33.4067ZM35.0479 32.0615C35.2445 32.0615 35.4215 32.0339 35.5789 31.9789C35.7362 31.9159 35.8739 31.8294 35.9919 31.7193C36.1099 31.6013 36.2121 31.4557 36.2987 31.2827V30.0201C36.2357 29.847 36.1413 29.7015 36.0155 29.5835C35.8896 29.4576 35.7401 29.3632 35.5671 29.3003C35.394 29.2295 35.2013 29.1941 34.9889 29.1941C34.7529 29.1941 34.5326 29.257 34.3281 29.3829C34.1314 29.5009 33.9741 29.6661 33.8561 29.8785C33.7381 30.0909 33.6791 30.3347 33.6791 30.6101C33.6791 30.8854 33.742 31.1332 33.8679 31.3535C33.9937 31.5737 34.1589 31.7468 34.3635 31.8727C34.5759 31.9985 34.804 32.0615 35.0479 32.0615ZM48.399 26.6807C48.0686 26.4997 47.7304 26.3503 47.3842 26.2323C47.046 26.1143 46.7274 26.0553 46.4284 26.0553C46.0587 26.0553 45.7676 26.13 45.5552 26.2795C45.3428 26.4289 45.2366 26.6531 45.2366 26.9521C45.2366 27.1566 45.3153 27.3415 45.4726 27.5067C45.6378 27.664 45.8463 27.8056 46.098 27.9315C46.3576 28.0573 46.6251 28.1714 46.9004 28.2737C47.1522 28.3681 47.4 28.4821 47.6438 28.6159C47.8956 28.7417 48.1198 28.903 48.3164 29.0997C48.5131 29.2885 48.6704 29.5284 48.7884 29.8195C48.9064 30.1027 48.9654 30.4527 48.9654 30.8697C48.9654 31.3102 48.8514 31.7193 48.6232 32.0969C48.3951 32.4745 48.0608 32.7813 47.6202 33.0173C47.1797 33.2454 46.6369 33.3595 45.9918 33.3595C45.6614 33.3595 45.3232 33.328 44.977 33.2651C44.6388 33.1943 44.3044 33.092 43.974 32.9583C43.6436 32.8167 43.325 32.6397 43.0182 32.4273L43.7734 31.0939C43.978 31.2433 44.1982 31.3771 44.4342 31.4951C44.6781 31.6052 44.922 31.6917 45.1658 31.7547C45.4097 31.8176 45.6339 31.8491 45.8384 31.8491C46.043 31.8491 46.2475 31.8215 46.452 31.7665C46.6644 31.7035 46.8375 31.6013 46.9712 31.4597C47.1128 31.3181 47.1836 31.1214 47.1836 30.8697C47.1836 30.6966 47.1246 30.5393 47.0066 30.3977C46.8965 30.2561 46.7431 30.1263 46.5464 30.0083C46.3576 29.8903 46.1492 29.788 45.921 29.7015C45.6536 29.5992 45.3782 29.4812 45.095 29.3475C44.8118 29.2137 44.5444 29.0525 44.2926 28.8637C44.0488 28.667 43.8482 28.4271 43.6908 28.1439C43.5414 27.8528 43.4666 27.4988 43.4666 27.0819C43.4666 26.5784 43.5768 26.1418 43.797 25.7721C44.0252 25.4023 44.3438 25.1113 44.7528 24.8989C45.1619 24.6786 45.6339 24.5567 46.1688 24.5331C46.869 24.5331 47.4354 24.6157 47.868 24.7809C48.3086 24.9461 48.7019 25.1427 49.048 25.3709L48.399 26.6807ZM52.5409 33.4067C52.0611 33.4067 51.6245 33.3123 51.2311 33.1235C50.8457 32.9268 50.5389 32.6279 50.3107 32.2267C50.0826 31.8255 49.9685 31.3141 49.9685 30.6927C49.9685 30.1105 50.0865 29.6071 50.3225 29.1823C50.5585 28.7575 50.8693 28.431 51.2547 28.2029C51.6402 27.9669 52.0493 27.8489 52.4819 27.8489C52.9933 27.8489 53.3787 27.9354 53.6383 28.1085C53.9058 28.2737 54.1261 28.4585 54.2991 28.6631L54.2283 28.8637L54.3817 28.1085H55.9157V33.2651H54.2637V32.1441L54.3935 32.4981C54.3778 32.4981 54.3306 32.5453 54.2519 32.6397C54.1733 32.7262 54.0553 32.8324 53.8979 32.9583C53.7485 33.0763 53.5597 33.1785 53.3315 33.2651C53.1113 33.3595 52.8477 33.4067 52.5409 33.4067ZM53.0129 32.0615C53.2096 32.0615 53.3866 32.0339 53.5439 31.9789C53.7013 31.9159 53.8389 31.8294 53.9569 31.7193C54.0749 31.6013 54.1772 31.4557 54.2637 31.2827V30.0201C54.2008 29.847 54.1064 29.7015 53.9805 29.5835C53.8547 29.4576 53.7052 29.3632 53.5321 29.3003C53.3591 29.2295 53.1663 29.1941 52.9539 29.1941C52.7179 29.1941 52.4977 29.257 52.2931 29.3829C52.0965 29.5009 51.9391 29.6661 51.8211 29.8785C51.7031 30.0909 51.6441 30.3347 51.6441 30.6101C51.6441 30.8854 51.7071 31.1332 51.8329 31.3535C51.9588 31.5737 52.124 31.7468 52.3285 31.8727C52.5409 31.9985 52.7691 32.0615 53.0129 32.0615ZM61.9958 32.8049C61.7676 32.9858 61.4805 33.1313 61.1344 33.2415C60.7961 33.3516 60.4618 33.4067 60.1314 33.4067C59.5414 33.4067 59.0261 33.3005 58.5856 33.0881C58.1529 32.8678 57.8146 32.5571 57.5708 32.1559C57.3348 31.7468 57.2168 31.2551 57.2168 30.6809C57.2168 30.1066 57.3466 29.6189 57.6062 29.2177C57.8658 28.8086 58.204 28.4979 58.621 28.2855C59.0458 28.0731 59.4902 27.9669 59.9544 27.9669C60.4185 27.9669 60.8197 28.0298 61.158 28.1557C61.5041 28.2815 61.7991 28.4467 62.043 28.6513L61.2406 29.7133C61.1304 29.6267 60.977 29.5402 60.7804 29.4537C60.5916 29.3593 60.3674 29.3121 60.1078 29.3121C59.8796 29.3121 59.6712 29.3711 59.4824 29.4891C59.2936 29.6071 59.1441 29.7683 59.034 29.9729C58.9238 30.1774 58.8688 30.4134 58.8688 30.6809C58.8688 30.9326 58.9278 31.1647 59.0458 31.3771C59.1638 31.5895 59.325 31.7586 59.5296 31.8845C59.742 32.0025 59.9898 32.0615 60.273 32.0615C60.4539 32.0615 60.6191 32.0379 60.7686 31.9907C60.9259 31.9356 61.0596 31.8609 61.1698 31.7665L61.9958 32.8049ZM62.8632 30.6219C62.8632 30.0948 62.9852 29.6228 63.229 29.2059C63.4808 28.7889 63.8308 28.4625 64.2792 28.2265C64.7276 27.9826 65.2429 27.8607 65.825 27.8607C66.415 27.8607 66.9264 27.9826 67.359 28.2265C67.7917 28.4625 68.1221 28.7889 68.3502 29.2059C68.5862 29.6228 68.7042 30.0948 68.7042 30.6219C68.7042 31.1489 68.5862 31.6249 68.3502 32.0497C68.1221 32.4666 67.7917 32.797 67.359 33.0409C66.9264 33.2847 66.4072 33.4067 65.8014 33.4067C65.235 33.4067 64.7276 33.2965 64.2792 33.0763C63.8387 32.856 63.4926 32.5374 63.2408 32.1205C62.9891 31.7035 62.8632 31.204 62.8632 30.6219ZM64.527 30.6337C64.527 30.9011 64.5821 31.145 64.6922 31.3653C64.8024 31.5777 64.9518 31.7468 65.1406 31.8727C65.3294 31.9985 65.5418 32.0615 65.7778 32.0615C66.0374 32.0615 66.2616 31.9985 66.4504 31.8727C66.6392 31.7468 66.7848 31.5777 66.887 31.3653C66.9893 31.145 67.0404 30.9011 67.0404 30.6337C67.0404 30.3583 66.9893 30.1145 66.887 29.9021C66.7848 29.6897 66.6392 29.5205 66.4504 29.3947C66.2616 29.2688 66.0374 29.2059 65.7778 29.2059C65.5418 29.2059 65.3294 29.2688 65.1406 29.3947C64.9518 29.5205 64.8024 29.6897 64.6922 29.9021C64.5821 30.1145 64.527 30.3583 64.527 30.6337ZM70.0057 23.9549H71.6577V33.2651H70.0057V23.9549ZM75.5302 33.4067C75.0503 33.4067 74.6137 33.3123 74.2204 33.1235C73.8349 32.9268 73.5281 32.6279 73.3 32.2267C73.0718 31.8255 72.9578 31.3141 72.9578 30.6927C72.9578 30.1105 73.0758 29.6071 73.3118 29.1823C73.5478 28.7575 73.8585 28.431 74.244 28.2029C74.6294 27.9669 75.0385 27.8489 75.4712 27.8489C75.9825 27.8489 76.368 27.9354 76.6276 28.1085C76.895 28.2737 77.1153 28.4585 77.2884 28.6631L77.2176 28.8637L77.371 28.1085H78.905V33.2651H77.253V32.1441L77.3828 32.4981C77.367 32.4981 77.3198 32.5453 77.2412 32.6397C77.1625 32.7262 77.0445 32.8324 76.8872 32.9583C76.7377 33.0763 76.5489 33.1785 76.3208 33.2651C76.1005 33.3595 75.837 33.4067 75.5302 33.4067ZM76.0022 32.0615C76.1988 32.0615 76.3758 32.0339 76.5332 31.9789C76.6905 31.9159 76.8282 31.8294 76.9462 31.7193C77.0642 31.6013 77.1664 31.4557 77.253 31.2827V30.0201C77.19 29.847 77.0956 29.7015 76.9698 29.5835C76.8439 29.4576 76.6944 29.3632 76.5214 29.3003C76.3483 29.2295 76.1556 29.1941 75.9432 29.1941C75.7072 29.1941 75.4869 29.257 75.2824 29.3829C75.0857 29.5009 74.9284 29.6661 74.8104 29.8785C74.6924 30.0909 74.6334 30.3347 74.6334 30.6101C74.6334 30.8854 74.6963 31.1332 74.8222 31.3535C74.948 31.5737 75.1132 31.7468 75.3178 31.8727C75.5302 31.9985 75.7583 32.0615 76.0022 32.0615Z" fill="black"/>
<path d="M4.121 33.2651V24.2263H4.1328L8.959 31.0703L8.2274 30.9051L13.0418 24.2263H13.0654V33.2651H11.3544V28.0849L11.4606 28.9699L8.5224 33.1471H8.4988L5.478 28.9699L5.773 28.1557V33.2651H4.121ZM15.0389 28.1085H16.6909V33.2651H15.0389V28.1085ZM15.0035 26.2795C15.0035 26.0356 15.0979 25.835 15.2867 25.6777C15.4833 25.5203 15.6918 25.4417 15.9121 25.4417C16.1323 25.4417 16.3329 25.5203 16.5139 25.6777C16.7027 25.835 16.7971 26.0356 16.7971 26.2795C16.7971 26.5233 16.7027 26.7239 16.5139 26.8813C16.3329 27.0307 16.1323 27.1055 15.9121 27.1055C15.6918 27.1055 15.4833 27.0307 15.2867 26.8813C15.0979 26.7239 15.0035 26.5233 15.0035 26.2795ZM19.8908 28.1085L20.0206 29.0289L19.997 28.9463C20.1779 28.6237 20.4336 28.3641 20.764 28.1675C21.0944 27.9629 21.4995 27.8607 21.9794 27.8607C22.4671 27.8607 22.8722 28.0062 23.1948 28.2973C23.5252 28.5805 23.6943 28.9502 23.7022 29.4065V33.2651H22.0502V30.0201C22.0423 29.7919 21.9794 29.611 21.8614 29.4773C21.7512 29.3357 21.5624 29.2649 21.295 29.2649C21.0432 29.2649 20.823 29.3475 20.6342 29.5127C20.4454 29.6779 20.2998 29.9021 20.1976 30.1853C20.0953 30.4685 20.0442 30.7949 20.0442 31.1647V33.2651H18.3922V28.1085H19.8908ZM25.3984 33.2651V23.9549H27.015V29.1469L27.0032 28.9463C27.1842 28.6237 27.4398 28.3641 27.7702 28.1675C28.1006 27.9629 28.5058 27.8607 28.9856 27.8607C29.4734 27.8607 29.8785 28.0062 30.201 28.2973C30.5314 28.5805 30.7006 28.9502 30.7084 29.4065V33.2651H29.0564V30.0201C29.0486 29.7919 28.9856 29.611 28.8676 29.4773C28.7575 29.3357 28.5687 29.2649 28.3012 29.2649C28.0495 29.2649 27.8292 29.3475 27.6404 29.5127C27.4516 29.6779 27.3061 29.9021 27.2038 30.1853C27.1016 30.4685 27.0504 30.7949 27.0504 31.1647V33.2651H25.3984ZM34.5759 33.4067C34.096 33.4067 33.6594 33.3123 33.2661 33.1235C32.8806 32.9268 32.5738 32.6279 32.3457 32.2267C32.1175 31.8255 32.0035 31.3141 32.0035 30.6927C32.0035 30.1105 32.1215 29.6071 32.3575 29.1823C32.5935 28.7575 32.9042 28.431 33.2897 28.2029C33.6751 27.9669 34.0842 27.8489 34.5169 27.8489C35.0282 27.8489 35.4137 27.9354 35.6733 28.1085C35.9407 28.2737 36.161 28.4585 36.3341 28.6631L36.2633 28.8637L36.4167 28.1085H37.9507V33.2651H36.2987V32.1441L36.4285 32.4981C36.4127 32.4981 36.3655 32.5453 36.2869 32.6397C36.2082 32.7262 36.0902 32.8324 35.9329 32.9583C35.7834 33.0763 35.5946 33.1785 35.3665 33.2651C35.1462 33.3595 34.8827 33.4067 34.5759 33.4067ZM35.0479 32.0615C35.2445 32.0615 35.4215 32.0339 35.5789 31.9789C35.7362 31.9159 35.8739 31.8294 35.9919 31.7193C36.1099 31.6013 36.2121 31.4557 36.2987 31.2827V30.0201C36.2357 29.847 36.1413 29.7015 36.0155 29.5835C35.8896 29.4576 35.7401 29.3632 35.5671 29.3003C35.394 29.2295 35.2013 29.1941 34.9889 29.1941C34.7529 29.1941 34.5326 29.257 34.3281 29.3829C34.1314 29.5009 33.9741 29.6661 33.8561 29.8785C33.7381 30.0909 33.6791 30.3347 33.6791 30.6101C33.6791 30.8854 33.742 31.1332 33.8679 31.3535C33.9937 31.5737 34.1589 31.7468 34.3635 31.8727C34.5759 31.9985 34.804 32.0615 35.0479 32.0615ZM48.399 26.6807C48.0686 26.4997 47.7304 26.3503 47.3842 26.2323C47.046 26.1143 46.7274 26.0553 46.4284 26.0553C46.0587 26.0553 45.7676 26.13 45.5552 26.2795C45.3428 26.4289 45.2366 26.6531 45.2366 26.9521C45.2366 27.1566 45.3153 27.3415 45.4726 27.5067C45.6378 27.664 45.8463 27.8056 46.098 27.9315C46.3576 28.0573 46.6251 28.1714 46.9004 28.2737C47.1522 28.3681 47.4 28.4821 47.6438 28.6159C47.8956 28.7417 48.1198 28.903 48.3164 29.0997C48.5131 29.2885 48.6704 29.5284 48.7884 29.8195C48.9064 30.1027 48.9654 30.4527 48.9654 30.8697C48.9654 31.3102 48.8514 31.7193 48.6232 32.0969C48.3951 32.4745 48.0608 32.7813 47.6202 33.0173C47.1797 33.2454 46.6369 33.3595 45.9918 33.3595C45.6614 33.3595 45.3232 33.328 44.977 33.2651C44.6388 33.1943 44.3044 33.092 43.974 32.9583C43.6436 32.8167 43.325 32.6397 43.0182 32.4273L43.7734 31.0939C43.978 31.2433 44.1982 31.3771 44.4342 31.4951C44.6781 31.6052 44.922 31.6917 45.1658 31.7547C45.4097 31.8176 45.6339 31.8491 45.8384 31.8491C46.043 31.8491 46.2475 31.8215 46.452 31.7665C46.6644 31.7035 46.8375 31.6013 46.9712 31.4597C47.1128 31.3181 47.1836 31.1214 47.1836 30.8697C47.1836 30.6966 47.1246 30.5393 47.0066 30.3977C46.8965 30.2561 46.7431 30.1263 46.5464 30.0083C46.3576 29.8903 46.1492 29.788 45.921 29.7015C45.6536 29.5992 45.3782 29.4812 45.095 29.3475C44.8118 29.2137 44.5444 29.0525 44.2926 28.8637C44.0488 28.667 43.8482 28.4271 43.6908 28.1439C43.5414 27.8528 43.4666 27.4988 43.4666 27.0819C43.4666 26.5784 43.5768 26.1418 43.797 25.7721C44.0252 25.4023 44.3438 25.1113 44.7528 24.8989C45.1619 24.6786 45.6339 24.5567 46.1688 24.5331C46.869 24.5331 47.4354 24.6157 47.868 24.7809C48.3086 24.9461 48.7019 25.1427 49.048 25.3709L48.399 26.6807ZM52.5409 33.4067C52.0611 33.4067 51.6245 33.3123 51.2311 33.1235C50.8457 32.9268 50.5389 32.6279 50.3107 32.2267C50.0826 31.8255 49.9685 31.3141 49.9685 30.6927C49.9685 30.1105 50.0865 29.6071 50.3225 29.1823C50.5585 28.7575 50.8693 28.431 51.2547 28.2029C51.6402 27.9669 52.0493 27.8489 52.4819 27.8489C52.9933 27.8489 53.3787 27.9354 53.6383 28.1085C53.9058 28.2737 54.1261 28.4585 54.2991 28.6631L54.2283 28.8637L54.3817 28.1085H55.9157V33.2651H54.2637V32.1441L54.3935 32.4981C54.3778 32.4981 54.3306 32.5453 54.2519 32.6397C54.1733 32.7262 54.0553 32.8324 53.8979 32.9583C53.7485 33.0763 53.5597 33.1785 53.3315 33.2651C53.1113 33.3595 52.8477 33.4067 52.5409 33.4067ZM53.0129 32.0615C53.2096 32.0615 53.3866 32.0339 53.5439 31.9789C53.7013 31.9159 53.8389 31.8294 53.9569 31.7193C54.0749 31.6013 54.1772 31.4557 54.2637 31.2827V30.0201C54.2008 29.847 54.1064 29.7015 53.9805 29.5835C53.8547 29.4576 53.7052 29.3632 53.5321 29.3003C53.3591 29.2295 53.1663 29.1941 52.9539 29.1941C52.7179 29.1941 52.4977 29.257 52.2931 29.3829C52.0965 29.5009 51.9391 29.6661 51.8211 29.8785C51.7031 30.0909 51.6441 30.3347 51.6441 30.6101C51.6441 30.8854 51.7071 31.1332 51.8329 31.3535C51.9588 31.5737 52.124 31.7468 52.3285 31.8727C52.5409 31.9985 52.7691 32.0615 53.0129 32.0615ZM61.9958 32.8049C61.7676 32.9858 61.4805 33.1313 61.1344 33.2415C60.7961 33.3516 60.4618 33.4067 60.1314 33.4067C59.5414 33.4067 59.0261 33.3005 58.5856 33.0881C58.1529 32.8678 57.8146 32.5571 57.5708 32.1559C57.3348 31.7468 57.2168 31.2551 57.2168 30.6809C57.2168 30.1066 57.3466 29.6189 57.6062 29.2177C57.8658 28.8086 58.204 28.4979 58.621 28.2855C59.0458 28.0731 59.4902 27.9669 59.9544 27.9669C60.4185 27.9669 60.8197 28.0298 61.158 28.1557C61.5041 28.2815 61.7991 28.4467 62.043 28.6513L61.2406 29.7133C61.1304 29.6267 60.977 29.5402 60.7804 29.4537C60.5916 29.3593 60.3674 29.3121 60.1078 29.3121C59.8796 29.3121 59.6712 29.3711 59.4824 29.4891C59.2936 29.6071 59.1441 29.7683 59.034 29.9729C58.9238 30.1774 58.8688 30.4134 58.8688 30.6809C58.8688 30.9326 58.9278 31.1647 59.0458 31.3771C59.1638 31.5895 59.325 31.7586 59.5296 31.8845C59.742 32.0025 59.9898 32.0615 60.273 32.0615C60.4539 32.0615 60.6191 32.0379 60.7686 31.9907C60.9259 31.9356 61.0596 31.8609 61.1698 31.7665L61.9958 32.8049ZM62.8632 30.6219C62.8632 30.0948 62.9852 29.6228 63.229 29.2059C63.4808 28.7889 63.8308 28.4625 64.2792 28.2265C64.7276 27.9826 65.2429 27.8607 65.825 27.8607C66.415 27.8607 66.9264 27.9826 67.359 28.2265C67.7917 28.4625 68.1221 28.7889 68.3502 29.2059C68.5862 29.6228 68.7042 30.0948 68.7042 30.6219C68.7042 31.1489 68.5862 31.6249 68.3502 32.0497C68.1221 32.4666 67.7917 32.797 67.359 33.0409C66.9264 33.2847 66.4072 33.4067 65.8014 33.4067C65.235 33.4067 64.7276 33.2965 64.2792 33.0763C63.8387 32.856 63.4926 32.5374 63.2408 32.1205C62.9891 31.7035 62.8632 31.204 62.8632 30.6219ZM64.527 30.6337C64.527 30.9011 64.5821 31.145 64.6922 31.3653C64.8024 31.5777 64.9518 31.7468 65.1406 31.8727C65.3294 31.9985 65.5418 32.0615 65.7778 32.0615C66.0374 32.0615 66.2616 31.9985 66.4504 31.8727C66.6392 31.7468 66.7848 31.5777 66.887 31.3653C66.9893 31.145 67.0404 30.9011 67.0404 30.6337C67.0404 30.3583 66.9893 30.1145 66.887 29.9021C66.7848 29.6897 66.6392 29.5205 66.4504 29.3947C66.2616 29.2688 66.0374 29.2059 65.7778 29.2059C65.5418 29.2059 65.3294 29.2688 65.1406 29.3947C64.9518 29.5205 64.8024 29.6897 64.6922 29.9021C64.5821 30.1145 64.527 30.3583 64.527 30.6337ZM70.0057 23.9549H71.6577V33.2651H70.0057V23.9549ZM75.5302 33.4067C75.0503 33.4067 74.6137 33.3123 74.2204 33.1235C73.8349 32.9268 73.5281 32.6279 73.3 32.2267C73.0718 31.8255 72.9578 31.3141 72.9578 30.6927C72.9578 30.1105 73.0758 29.6071 73.3118 29.1823C73.5478 28.7575 73.8585 28.431 74.244 28.2029C74.6294 27.9669 75.0385 27.8489 75.4712 27.8489C75.9825 27.8489 76.368 27.9354 76.6276 28.1085C76.895 28.2737 77.1153 28.4585 77.2884 28.6631L77.2176 28.8637L77.371 28.1085H78.905V33.2651H77.253V32.1441L77.3828 32.4981C77.367 32.4981 77.3198 32.5453 77.2412 32.6397C77.1625 32.7262 77.0445 32.8324 76.8872 32.9583C76.7377 33.0763 76.5489 33.1785 76.3208 33.2651C76.1005 33.3595 75.837 33.4067 75.5302 33.4067ZM76.0022 32.0615C76.1988 32.0615 76.3758 32.0339 76.5332 31.9789C76.6905 31.9159 76.8282 31.8294 76.9462 31.7193C77.0642 31.6013 77.1664 31.4557 77.253 31.2827V30.0201C77.19 29.847 77.0956 29.7015 76.9698 29.5835C76.8439 29.4576 76.6944 29.3632 76.5214 29.3003C76.3483 29.2295 76.1556 29.1941 75.9432 29.1941C75.7072 29.1941 75.4869 29.257 75.2824 29.3829C75.0857 29.5009 74.9284 29.6661 74.8104 29.8785C74.6924 30.0909 74.6334 30.3347 74.6334 30.6101C74.6334 30.8854 74.6963 31.1332 74.8222 31.3535C74.948 31.5737 75.1132 31.7468 75.3178 31.8727C75.5302 31.9985 75.7583 32.0615 76.0022 32.0615Z" fill="black" fill-opacity="0.2"/>
</g>
<defs>
<filter id="filter0_d_11_42" x="0.121002" y="23.9549" width="82.784" height="17.4518" filterUnits="userSpaceOnUse" color-interpolation-filters="sRGB">
<feFlood flood-opacity="0" result="BackgroundImageFix"/>
<feColorMatrix in="SourceAlpha" type="matrix" values="0 0 0 0 0 0 0 0 0 0 0 0 0 0 0 0 0 0 127 0" result="hardAlpha"/>
<feOffset dy="4"/>
<feGaussianBlur stdDeviation="2"/>
<feComposite in2="hardAlpha" operator="out"/>
<feColorMatrix type="matrix" values="0 0 0 0 0 0 0 0 0 0 0 0 0 0 0 0 0 0 0.25 0"/>
<feBlend mode="normal" in2="BackgroundImageFix" result="effect1_dropShadow_11_42"/>
<feBlend mode="normal" in="SourceGraphic" in2="effect1_dropShadow_11_42" result="shape"/>
</filter>
</defs>
</svg>
