<svg width="70" height="45" viewBox="0 0 70 45" fill="none" xmlns="http://www.w3.org/2000/svg">
<rect width="70" height="45" fill="#E6BEE3"/>
<path d="M27.898 15.4666C26.8687 15.7904 25.4277 17.0047 24.8102 18.0571L23.678 20H34.9999H46.3218L45.0867 17.9761C44.4691 16.9237 43.0282 15.7094 41.896 15.4666C38.7052 14.657 30.1623 14.657 27.898 15.4666Z" fill="black"/>
<path d="M29.3391 2.02383C24.1927 5.99058 27.7952 12.9526 35 12.9526C36.9556 12.9526 39.1171 12.224 40.661 10.9288C45.8073 6.96203 42.2049 -2.50181e-05 35 -2.50181e-05C33.0444 -2.50181e-05 30.883 0.728562 29.3391 2.02383ZM38.7054 10.1192C37.5732 10.7669 35.9264 11.3336 35 11.3336C34.0737 11.3336 32.4269 10.7669 31.2947 10.1192C29.5449 9.06684 29.7508 8.98588 35 8.98588C40.2493 8.98588 40.4551 9.06684 38.7054 10.1192Z" fill="black"/>
<g filter="url(#filter0_d_29_3)">
<path d="M16.2589 24.432H22.7849V26.252H18.1439V28.293H22.2519V30.113H18.1439V32.18H22.9669V34H16.2589V24.432ZM26.2691 28.319L26.4121 29.333L26.3861 29.242C26.5855 28.8867 26.8671 28.6007 27.2311 28.384C27.5951 28.1587 28.0415 28.046 28.5701 28.046C29.1075 28.046 29.5538 28.2063 29.9091 28.527C30.2731 28.839 30.4595 29.2463 30.4681 29.749V34H28.6481V30.425C28.6395 30.1737 28.5701 29.9743 28.4401 29.827C28.3188 29.671 28.1108 29.593 27.8161 29.593C27.5388 29.593 27.2961 29.684 27.0881 29.866C26.8801 30.048 26.7198 30.295 26.6071 30.607C26.4945 30.919 26.4381 31.2787 26.4381 31.686V34H24.6181V28.319H26.2691ZM32.8699 25.823H34.6899V28.293H36.0679V29.71H34.6899V34H32.8699V29.71H31.9859V28.293H32.8699V25.823ZM39.0911 28.319L39.2601 29.879L39.2211 29.645C39.3858 29.307 39.6111 29.021 39.8971 28.787C40.1831 28.5443 40.4648 28.358 40.7421 28.228C41.0281 28.098 41.2448 28.033 41.3921 28.033L41.3011 29.853C40.8764 29.801 40.5124 29.8703 40.2091 30.061C39.9058 30.2517 39.6718 30.503 39.5071 30.815C39.3424 31.127 39.2601 31.4477 39.2601 31.777V34H37.4531V28.319H39.0911ZM44.9867 34.156C44.458 34.156 43.977 34.052 43.5437 33.844C43.119 33.6273 42.781 33.298 42.5297 32.856C42.2784 32.414 42.1527 31.8507 42.1527 31.166C42.1527 30.5247 42.2827 29.97 42.5427 29.502C42.8027 29.034 43.145 28.6743 43.5697 28.423C43.9944 28.163 44.445 28.033 44.9217 28.033C45.485 28.033 45.9097 28.1283 46.1957 28.319C46.4904 28.501 46.733 28.7047 46.9237 28.93L46.8457 29.151L47.0147 28.319H48.7047V34H46.8847V32.765L47.0277 33.155C47.0104 33.155 46.9584 33.207 46.8717 33.311C46.785 33.4063 46.655 33.5233 46.4817 33.662C46.317 33.792 46.109 33.9047 45.8577 34C45.615 34.104 45.3247 34.156 44.9867 34.156ZM45.5067 32.674C45.7234 32.674 45.9184 32.6437 46.0917 32.583C46.265 32.5137 46.4167 32.4183 46.5467 32.297C46.6767 32.167 46.7894 32.0067 46.8847 31.816V30.425C46.8154 30.2343 46.7114 30.074 46.5727 29.944C46.434 29.8053 46.2694 29.7013 46.0787 29.632C45.888 29.554 45.6757 29.515 45.4417 29.515C45.1817 29.515 44.939 29.5843 44.7137 29.723C44.497 29.853 44.3237 30.035 44.1937 30.269C44.0637 30.503 43.9987 30.7717 43.9987 31.075C43.9987 31.3783 44.068 31.6513 44.2067 31.894C44.3454 32.1367 44.5274 32.3273 44.7527 32.466C44.9867 32.6047 45.238 32.674 45.5067 32.674ZM52.218 28.319L52.387 29.879L52.348 29.645C52.5127 29.307 52.738 29.021 53.024 28.787C53.31 28.5443 53.5917 28.358 53.869 28.228C54.155 28.098 54.3717 28.033 54.519 28.033L54.428 29.853C54.0034 29.801 53.6394 29.8703 53.336 30.061C53.0327 30.2517 52.7987 30.503 52.634 30.815C52.4694 31.127 52.387 31.4477 52.387 31.777V34H50.58V28.319H52.218Z" fill="black"/>
</g>
<defs>
<filter id="filter0_d_29_3" x="12.259" y="24.4321" width="46.26" height="17.7236" filterUnits="userSpaceOnUse" color-interpolation-filters="sRGB">
<feFlood flood-opacity="0" result="BackgroundImageFix"/>
<feColorMatrix in="SourceAlpha" type="matrix" values="0 0 0 0 0 0 0 0 0 0 0 0 0 0 0 0 0 0 127 0" result="hardAlpha"/>
<feOffset dy="4"/>
<feGaussianBlur stdDeviation="2"/>
<feComposite in2="hardAlpha" operator="out"/>
<feColorMatrix type="matrix" values="0 0 0 0 0 0 0 0 0 0 0 0 0 0 0 0 0 0 0.25 0"/>
<feBlend mode="normal" in2="BackgroundImageFix" result="effect1_dropShadow_29_3"/>
<feBlend mode="normal" in="SourceGraphic" in2="effect1_dropShadow_29_3" result="shape"/>
</filter>
</defs>
</svg>
