<svg width="80" height="41" viewBox="0 0 80 41" fill="none" xmlns="http://www.w3.org/2000/svg">
<g filter="url(#filter0_b_11_45)">
<rect width="77" height="34.9771" transform="translate(1 0.74585)" fill="#E6BEE3"/>
<rect width="77" height="34.9771" transform="translate(1 0.74585)" fill="#E6BEE3"/>
<path d="M33.5409 16.968C32.6773 17.3077 31.4682 18.5813 30.95 19.6851L30 21.7229H39.5H49L47.9636 19.6002C47.4454 18.4964 46.2364 17.2228 45.2864 16.968C42.6091 16.119 35.4409 16.119 33.5409 16.968Z" fill="black"/>
<path d="M33.5409 16.968C32.6773 17.3077 31.4682 18.5813 30.95 19.6851L30 21.7229H39.5H49L47.9636 19.6002C47.4454 18.4964 46.2364 17.2228 45.2864 16.968C42.6091 16.119 35.4409 16.119 33.5409 16.968Z" fill="black"/>
<path d="M34.75 2.86856C30.4318 7.02909 33.4545 14.3312 39.5 14.3312C41.1409 14.3312 42.9545 13.5671 44.25 12.2085C48.5682 8.04799 45.5454 0.74584 39.5 0.74584C37.8591 0.74584 36.0454 1.51002 34.75 2.86856ZM42.6091 11.3594C41.6591 12.0387 40.2773 12.6331 39.5 12.6331C38.7227 12.6331 37.3409 12.0387 36.3909 11.3594C34.9227 10.2556 35.0954 10.1707 39.5 10.1707C43.9045 10.1707 44.0773 10.2556 42.6091 11.3594Z" fill="black"/>
<path d="M34.75 2.86856C30.4318 7.02909 33.4545 14.3312 39.5 14.3312C41.1409 14.3312 42.9545 13.5671 44.25 12.2085C48.5682 8.04799 45.5454 0.74584 39.5 0.74584C37.8591 0.74584 36.0454 1.51002 34.75 2.86856ZM42.6091 11.3594C41.6591 12.0387 40.2773 12.6331 39.5 12.6331C38.7227 12.6331 37.3409 12.0387 36.3909 11.3594C34.9227 10.2556 35.0954 10.1707 39.5 10.1707C43.9045 10.1707 44.0773 10.2556 42.6091 11.3594Z" fill="black"/>
<g filter="url(#filter1_d_11_45)">
<path d="M4.35992 32.7229V23.5309H4.37192L9.27992 30.4909L8.53592 30.3229L13.4319 23.5309H13.4559V32.7229H11.7159V27.4549L11.8239 28.3549L8.83592 32.6029H8.81192L5.73992 28.3549L6.03992 27.5269V32.7229H4.35992ZM17.4428 32.8669C16.8028 32.8669 16.2588 32.7469 15.8108 32.5069C15.3708 32.2669 15.0348 31.9349 14.8028 31.5109C14.5708 31.0869 14.4548 30.5989 14.4548 30.0469C14.4548 29.5189 14.5908 29.0429 14.8628 28.6189C15.1348 28.1949 15.4988 27.8589 15.9548 27.6109C16.4108 27.3549 16.9188 27.2269 17.4788 27.2269C18.2308 27.2269 18.8468 27.4469 19.3268 27.8869C19.8148 28.3189 20.1308 28.9469 20.2748 29.7709L16.1948 31.0669L15.8228 30.1549L18.7748 29.1589L18.4268 29.3149C18.3628 29.1069 18.2468 28.9269 18.0788 28.7749C17.9188 28.6149 17.6748 28.5349 17.3468 28.5349C17.0988 28.5349 16.8788 28.5949 16.6868 28.7149C16.5028 28.8269 16.3588 28.9909 16.2548 29.2069C16.1588 29.4149 16.1108 29.6629 16.1108 29.9509C16.1108 30.2789 16.1708 30.5549 16.2908 30.7789C16.4108 30.9949 16.5748 31.1589 16.7828 31.2709C16.9908 31.3829 17.2228 31.4389 17.4788 31.4389C17.6628 31.4389 17.8388 31.4069 18.0068 31.3429C18.1828 31.2789 18.3548 31.1949 18.5228 31.0909L19.2668 32.3389C18.9868 32.4989 18.6828 32.6269 18.3548 32.7229C18.0348 32.8189 17.7308 32.8669 17.4428 32.8669ZM22.5876 32.9749C22.1156 32.9749 21.7196 32.8309 21.3996 32.5429C21.0796 32.2469 20.9116 31.8669 20.8956 31.4029V27.4789H22.5756V30.7789C22.5916 31.0109 22.6516 31.1989 22.7556 31.3429C22.8596 31.4789 23.0356 31.5469 23.2836 31.5469C23.5316 31.5469 23.7436 31.4629 23.9196 31.2949C24.1036 31.1269 24.2436 30.8989 24.3396 30.6109C24.4436 30.3149 24.4956 29.9829 24.4956 29.6149V27.4789H26.1756V32.7229H24.6516L24.5196 31.7629L24.5436 31.8709C24.4236 32.0869 24.2716 32.2789 24.0876 32.4469C23.9036 32.6149 23.6836 32.7429 23.4276 32.8309C23.1796 32.9269 22.8996 32.9749 22.5876 32.9749ZM29.0075 32.8309C28.5755 32.8309 28.1715 32.7549 27.7955 32.6029C27.4275 32.4509 27.1155 32.2389 26.8595 31.9669L27.5555 31.0429C27.8115 31.2749 28.0475 31.4429 28.2635 31.5469C28.4875 31.6429 28.6875 31.6909 28.8635 31.6909C28.9995 31.6909 29.1195 31.6789 29.2235 31.6549C29.3355 31.6229 29.4235 31.5789 29.4875 31.5229C29.5515 31.4589 29.5835 31.3789 29.5835 31.2829C29.5835 31.1469 29.5275 31.0389 29.4155 30.9589C29.3115 30.8789 29.1755 30.8149 29.0075 30.7669C28.8395 30.7109 28.6595 30.6549 28.4675 30.5989C27.9875 30.4469 27.6395 30.2269 27.4235 29.9389C27.2155 29.6429 27.1115 29.3229 27.1115 28.9789C27.1115 28.7149 27.1795 28.4509 27.3155 28.1869C27.4595 27.9149 27.6835 27.6909 27.9875 27.5149C28.2995 27.3309 28.6995 27.2389 29.1875 27.2389C29.6275 27.2389 29.9995 27.2829 30.3035 27.3709C30.6075 27.4589 30.8955 27.6029 31.1675 27.8029L30.5315 28.7869C30.3795 28.6669 30.2075 28.5669 30.0155 28.4869C29.8315 28.3989 29.6595 28.3509 29.4995 28.3429C29.3555 28.3349 29.2315 28.3509 29.1275 28.3909C29.0315 28.4309 28.9555 28.4829 28.8995 28.5469C28.8435 28.6109 28.8155 28.6789 28.8155 28.7509C28.8075 28.9029 28.8635 29.0229 28.9835 29.1109C29.1115 29.1989 29.2715 29.2669 29.4635 29.3149C29.6555 29.3629 29.8435 29.4189 30.0275 29.4829C30.2835 29.5629 30.5035 29.6709 30.6875 29.8069C30.8715 29.9429 31.0115 30.1069 31.1075 30.2989C31.2115 30.4829 31.2635 30.7069 31.2635 30.9709C31.2635 31.2909 31.1795 31.5949 31.0115 31.8829C30.8515 32.1629 30.6035 32.3909 30.2675 32.5669C29.9395 32.7429 29.5195 32.8309 29.0075 32.8309ZM38.325 23.8909C39.053 23.8909 39.669 24.0149 40.173 24.2629C40.677 24.5029 41.061 24.8469 41.325 25.2949C41.589 25.7349 41.721 26.2589 41.721 26.8669C41.721 27.2269 41.665 27.5909 41.553 27.9589C41.449 28.3189 41.277 28.6469 41.037 28.9429C40.805 29.2389 40.489 29.4789 40.089 29.6629C39.697 29.8389 39.213 29.9269 38.637 29.9269H37.389V32.7229H35.649V23.8909H38.325ZM38.625 28.2349C38.889 28.2349 39.109 28.1909 39.285 28.1029C39.461 28.0069 39.597 27.8909 39.693 27.7549C39.797 27.6109 39.869 27.4629 39.909 27.3109C39.957 27.1589 39.981 27.0269 39.981 26.9149C39.981 26.8269 39.965 26.7109 39.933 26.5669C39.909 26.4149 39.853 26.2629 39.765 26.1109C39.677 25.9589 39.541 25.8309 39.357 25.7269C39.181 25.6229 38.941 25.5709 38.637 25.5709H37.389V28.2349H38.625ZM44.9819 32.8669C44.3419 32.8669 43.7979 32.7469 43.3499 32.5069C42.9099 32.2669 42.5739 31.9349 42.3419 31.5109C42.1099 31.0869 41.9939 30.5989 41.9939 30.0469C41.9939 29.5189 42.1299 29.0429 42.4019 28.6189C42.6739 28.1949 43.0379 27.8589 43.4939 27.6109C43.9499 27.3549 44.4579 27.2269 45.0179 27.2269C45.7699 27.2269 46.3859 27.4469 46.8659 27.8869C47.3539 28.3189 47.6699 28.9469 47.8139 29.7709L43.7339 31.0669L43.3619 30.1549L46.3139 29.1589L45.9659 29.3149C45.9019 29.1069 45.7859 28.9269 45.6179 28.7749C45.4579 28.6149 45.2139 28.5349 44.8859 28.5349C44.6379 28.5349 44.4179 28.5949 44.2259 28.7149C44.0419 28.8269 43.8979 28.9909 43.7939 29.2069C43.6979 29.4149 43.6499 29.6629 43.6499 29.9509C43.6499 30.2789 43.7099 30.5549 43.8299 30.7789C43.9499 30.9949 44.1139 31.1589 44.3219 31.2709C44.5299 31.3829 44.7619 31.4389 45.0179 31.4389C45.2019 31.4389 45.3779 31.4069 45.5459 31.3429C45.7219 31.2789 45.8939 31.1949 46.0619 31.0909L46.8059 32.3389C46.5259 32.4989 46.2219 32.6269 45.8939 32.7229C45.5739 32.8189 45.2699 32.8669 44.9819 32.8669ZM50.5707 32.8669C50.0827 32.8669 49.6467 32.7549 49.2627 32.5309C48.8787 32.2989 48.5747 31.9669 48.3507 31.5349C48.1347 31.1029 48.0267 30.5909 48.0267 29.9989C48.0267 29.4069 48.1467 28.9029 48.3867 28.4869C48.6267 28.0709 48.9547 27.7549 49.3707 27.5389C49.7867 27.3229 50.2587 27.2149 50.7867 27.2149C51.1227 27.2149 51.4427 27.2669 51.7467 27.3709C52.0587 27.4749 52.3187 27.6349 52.5267 27.8509V28.3789V23.2549H54.1947V32.7229H52.5147V31.7029L52.6467 32.0629C52.3747 32.2869 52.0707 32.4789 51.7347 32.6389C51.3987 32.7909 51.0107 32.8669 50.5707 32.8669ZM51.1227 31.4509C51.3467 31.4509 51.5427 31.4229 51.7107 31.3669C51.8867 31.3029 52.0387 31.2149 52.1667 31.1029C52.3027 30.9829 52.4187 30.8349 52.5147 30.6589V29.3749C52.4507 29.1989 52.3507 29.0509 52.2147 28.9309C52.0867 28.8029 51.9267 28.7069 51.7347 28.6429C51.5507 28.5709 51.3467 28.5349 51.1227 28.5349C50.8747 28.5349 50.6427 28.5989 50.4267 28.7269C50.2187 28.8469 50.0507 29.0149 49.9227 29.2309C49.7947 29.4469 49.7307 29.6949 49.7307 29.9749C49.7307 30.2549 49.7947 30.5069 49.9227 30.7309C50.0507 30.9549 50.2187 31.1309 50.4267 31.2589C50.6427 31.3869 50.8747 31.4509 51.1227 31.4509ZM55.323 27.4789H57.003V32.7229H55.323V27.4789ZM55.287 25.6189C55.287 25.3709 55.383 25.1669 55.575 25.0069C55.775 24.8469 55.987 24.7669 56.211 24.7669C56.435 24.7669 56.639 24.8469 56.823 25.0069C57.015 25.1669 57.111 25.3709 57.111 25.6189C57.111 25.8669 57.015 26.0709 56.823 26.2309C56.639 26.3829 56.435 26.4589 56.211 26.4589C55.987 26.4589 55.775 26.3829 55.575 26.2309C55.383 26.0709 55.287 25.8669 55.287 25.6189ZM60.2691 32.8669C59.7811 32.8669 59.3451 32.7549 58.9611 32.5309C58.5771 32.2989 58.2731 31.9669 58.0491 31.5349C57.8331 31.1029 57.7251 30.5909 57.7251 29.9989C57.7251 29.4069 57.8451 28.9029 58.0851 28.4869C58.3251 28.0709 58.6531 27.7549 59.0691 27.5389C59.4851 27.3229 59.9571 27.2149 60.4851 27.2149C60.8211 27.2149 61.1411 27.2669 61.4451 27.3709C61.7571 27.4749 62.0171 27.6349 62.2251 27.8509V28.3789V23.2549H63.8931V32.7229H62.2131V31.7029L62.3451 32.0629C62.0731 32.2869 61.7691 32.4789 61.4331 32.6389C61.0971 32.7909 60.7091 32.8669 60.2691 32.8669ZM60.8211 31.4509C61.0451 31.4509 61.2411 31.4229 61.4091 31.3669C61.5851 31.3029 61.7371 31.2149 61.8651 31.1029C62.0011 30.9829 62.1171 30.8349 62.2131 30.6589V29.3749C62.1491 29.1989 62.0491 29.0509 61.9131 28.9309C61.7851 28.8029 61.6251 28.7069 61.4331 28.6429C61.2491 28.5709 61.0451 28.5349 60.8211 28.5349C60.5731 28.5349 60.3411 28.5989 60.1251 28.7269C59.9171 28.8469 59.7491 29.0149 59.6211 29.2309C59.4931 29.4469 59.4291 29.6949 59.4291 29.9749C59.4291 30.2549 59.4931 30.5069 59.6211 30.7309C59.7491 30.9549 59.9171 31.1309 60.1251 31.2589C60.3411 31.3869 60.5731 31.4509 60.8211 31.4509ZM64.6134 30.0349C64.6134 29.4989 64.7374 29.0189 64.9854 28.5949C65.2414 28.1709 65.5974 27.8389 66.0534 27.5989C66.5094 27.3509 67.0334 27.2269 67.6254 27.2269C68.2254 27.2269 68.7454 27.3509 69.1854 27.5989C69.6254 27.8389 69.9614 28.1709 70.1934 28.5949C70.4334 29.0189 70.5534 29.4989 70.5534 30.0349C70.5534 30.5709 70.4334 31.0549 70.1934 31.4869C69.9614 31.9109 69.6254 32.2469 69.1854 32.4949C68.7454 32.7429 68.2174 32.8669 67.6014 32.8669C67.0254 32.8669 66.5094 32.7549 66.0534 32.5309C65.6054 32.3069 65.2534 31.9829 64.9974 31.5589C64.7414 31.1349 64.6134 30.6269 64.6134 30.0349ZM66.3054 30.0469C66.3054 30.3189 66.3614 30.5669 66.4734 30.7909C66.5854 31.0069 66.7374 31.1789 66.9294 31.3069C67.1214 31.4349 67.3374 31.4989 67.5774 31.4989C67.8414 31.4989 68.0694 31.4349 68.2614 31.3069C68.4534 31.1789 68.6014 31.0069 68.7054 30.7909C68.8094 30.5669 68.8614 30.3189 68.8614 30.0469C68.8614 29.7669 68.8094 29.5189 68.7054 29.3029C68.6014 29.0869 68.4534 28.9149 68.2614 28.7869C68.0694 28.6589 67.8414 28.5949 67.5774 28.5949C67.3374 28.5949 67.1214 28.6589 66.9294 28.7869C66.7374 28.9149 66.5854 29.0869 66.4734 29.3029C66.3614 29.5189 66.3054 29.7669 66.3054 30.0469ZM72.9809 32.8309C72.5489 32.8309 72.1449 32.7549 71.7689 32.6029C71.4009 32.4509 71.0889 32.2389 70.8329 31.9669L71.5289 31.0429C71.7849 31.2749 72.0209 31.4429 72.2369 31.5469C72.4609 31.6429 72.6609 31.6909 72.8369 31.6909C72.9729 31.6909 73.0929 31.6789 73.1969 31.6549C73.3089 31.6229 73.3969 31.5789 73.4609 31.5229C73.5249 31.4589 73.5569 31.3789 73.5569 31.2829C73.5569 31.1469 73.5009 31.0389 73.3889 30.9589C73.2849 30.8789 73.1489 30.8149 72.9809 30.7669C72.8129 30.7109 72.6329 30.6549 72.4409 30.5989C71.9609 30.4469 71.6129 30.2269 71.3969 29.9389C71.1889 29.6429 71.0849 29.3229 71.0849 28.9789C71.0849 28.7149 71.1529 28.4509 71.2889 28.1869C71.4329 27.9149 71.6569 27.6909 71.9609 27.5149C72.2729 27.3309 72.6729 27.2389 73.1609 27.2389C73.6009 27.2389 73.9729 27.2829 74.2769 27.3709C74.5809 27.4589 74.8689 27.6029 75.1409 27.8029L74.5049 28.7869C74.3529 28.6669 74.1809 28.5669 73.9889 28.4869C73.8049 28.3989 73.6329 28.3509 73.4729 28.3429C73.3289 28.3349 73.2049 28.3509 73.1009 28.3909C73.0049 28.4309 72.9289 28.4829 72.8729 28.5469C72.8169 28.6109 72.7889 28.6789 72.7889 28.7509C72.7809 28.9029 72.8369 29.0229 72.9569 29.1109C73.0849 29.1989 73.2449 29.2669 73.4369 29.3149C73.6289 29.3629 73.8169 29.4189 74.0009 29.4829C74.2569 29.5629 74.4769 29.6709 74.6609 29.8069C74.8449 29.9429 74.9849 30.1069 75.0809 30.2989C75.1849 30.4829 75.2369 30.7069 75.2369 30.9709C75.2369 31.2909 75.1529 31.5949 74.9849 31.8829C74.8249 32.1629 74.5769 32.3909 74.2409 32.5669C73.9129 32.7429 73.4929 32.8309 72.9809 32.8309Z" fill="black"/>
</g>
</g>
<defs>
<filter id="filter0_b_11_45" x="-3" y="-3.25415" width="85" height="42.9771" filterUnits="userSpaceOnUse" color-interpolation-filters="sRGB">
<feFlood flood-opacity="0" result="BackgroundImageFix"/>
<feGaussianBlur in="BackgroundImageFix" stdDeviation="2"/>
<feComposite in2="SourceAlpha" operator="in" result="effect1_backgroundBlur_11_45"/>
<feBlend mode="normal" in="SourceGraphic" in2="effect1_backgroundBlur_11_45" result="shape"/>
</filter>
<filter id="filter1_d_11_45" x="0.359924" y="23.2549" width="78.877" height="17.72" filterUnits="userSpaceOnUse" color-interpolation-filters="sRGB">
<feFlood flood-opacity="0" result="BackgroundImageFix"/>
<feColorMatrix in="SourceAlpha" type="matrix" values="0 0 0 0 0 0 0 0 0 0 0 0 0 0 0 0 0 0 127 0" result="hardAlpha"/>
<feOffset dy="4"/>
<feGaussianBlur stdDeviation="2"/>
<feComposite in2="hardAlpha" operator="out"/>
<feColorMatrix type="matrix" values="0 0 0 0 0 0 0 0 0 0 0 0 0 0 0 0 0 0 0.25 0"/>
<feBlend mode="normal" in2="BackgroundImageFix" result="effect1_dropShadow_11_45"/>
<feBlend mode="normal" in="SourceGraphic" in2="effect1_dropShadow_11_45" result="shape"/>
</filter>
</defs>
</svg>
