<?xml version="1.0" standalone="no"?>
<!DOCTYPE svg PUBLIC "-//W3C//DTD SVG 20010904//EN"
 "http://www.w3.org/TR/2001/REC-SVG-20010904/DTD/svg10.dtd">
<svg version="1.0" xmlns="http://www.w3.org/2000/svg"
 width="24.000000pt" height="24.000000pt" viewBox="0 0 24.000000 24.000000"
 preserveAspectRatio="xMidYMid meet">

<g transform="translate(0.000000,24.000000) scale(0.100000,-0.100000)"
fill="#000000" stroke="none">
<path d="M65 215 c-50 -49 -15 -135 55 -135 19 0 40 9 55 25 50 49 15 135 -55
135 -19 0 -40 -9 -55 -25z m91 -100 c-11 -8 -27 -15 -36 -15 -9 0 -25 7 -36
15 -17 13 -15 14 36 14 51 0 53 -1 36 -14z"/>
<path d="M51 56 c-10 -4 -24 -19 -30 -32 l-11 -24 110 0 110 0 -12 25 c-6 13
-20 28 -31 31 -31 10 -114 10 -136 0z"/>
</g>
</svg>
