<?xml version="1.0" standalone="no"?>
<!DOCTYPE svg PUBLIC "-//W3C//DTD SVG 20010904//EN"
 "http://www.w3.org/TR/2001/REC-SVG-20010904/DTD/svg10.dtd">
<svg version="1.0" xmlns="http://www.w3.org/2000/svg"
 width="50.000000pt" height="50.000000pt" viewBox="0 0 50.000000 50.000000"
 preserveAspectRatio="xMidYMid meet">

<g transform="translate(0.000000,50.000000) scale(0.100000,-0.100000)"
fill="#000000" stroke="none">
<path d="M29 431 l-29 -29 0 -152 0 -152 29 -29 29 -29 192 0 192 0 29 29 29
29 0 152 0 152 -29 29 -29 29 -192 0 -192 0 -29 -29z m91 -181 c0 -47 -4 -80
-10 -80 -6 0 -10 33 -10 80 0 47 4 80 10 80 6 0 10 -33 10 -80z m100 35 c0
-25 1 -25 90 -25 53 0 90 -4 90 -10 0 -6 -37 -10 -90 -10 -89 0 -90 0 -90 -25
0 -32 -7 -31 -50 5 l-34 30 34 30 c43 36 50 37 50 5z"/>
</g>
</svg>
